<?xml version="1.0" encoding="UTF-8"?>
<svg version="1.1" xmlns="http://www.w3.org/2000/svg" width="512" height="512">
<path d="M0 0 C1.01790619 0.00215515 2.03581238 0.0043103 3.08456421 0.00653076 C17.69363523 0.05620146 32.02575853 0.30709809 46.375 3.3125 C47.34985352 3.51117676 48.32470703 3.70985352 49.32910156 3.91455078 C92.59881524 12.96579926 132.80019334 31.35020671 166.375 60.3125 C167.12007813 60.94671875 167.86515625 61.5809375 168.6328125 62.234375 C182.13779833 74.04551515 194.80918743 86.79610228 205.375 101.3125 C206.23149066 102.46244831 207.08826433 103.61218589 207.9453125 104.76171875 C213.9859414 112.95339526 219.34505071 121.46895078 224.375 130.3125 C224.73948242 130.94430176 225.10396484 131.57610352 225.47949219 132.22705078 C247.08534998 169.97532572 256.85198095 212.74189997 256.6875 255.9375 C256.68534485 256.95540619 256.6831897 257.97331238 256.68096924 259.02206421 C256.63129854 273.63113523 256.38040191 287.96325853 253.375 302.3125 C253.07698486 303.77478027 253.07698486 303.77478027 252.77294922 305.26660156 C243.72170074 348.53631524 225.33729329 388.73769334 196.375 422.3125 C195.74078125 423.05757813 195.1065625 423.80265625 194.453125 424.5703125 C182.64198485 438.07529833 169.89139772 450.74668743 155.375 461.3125 C154.22505169 462.16899066 153.07531411 463.02576433 151.92578125 463.8828125 C143.73410474 469.9234414 135.21854922 475.28255071 126.375 480.3125 C125.74319824 480.67698242 125.11139648 481.04146484 124.46044922 481.41699219 C86.71217428 503.02284998 43.94560003 512.78948095 0.75 512.625 C-0.77685928 512.62176727 -0.77685928 512.62176727 -2.33456421 512.61846924 C-16.94363523 512.56879854 -31.27575853 512.31790191 -45.625 509.3125 C-47.08728027 509.01448486 -47.08728027 509.01448486 -48.57910156 508.71044922 C-91.84881524 499.65920074 -132.05019334 481.27479329 -165.625 452.3125 C-166.37007813 451.67828125 -167.11515625 451.0440625 -167.8828125 450.390625 C-181.38779833 438.57948485 -194.05918743 425.82889772 -204.625 411.3125 C-205.48149066 410.16255169 -206.33826433 409.01281411 -207.1953125 407.86328125 C-213.2359414 399.67160474 -218.59505071 391.15604922 -223.625 382.3125 C-223.98948242 381.68069824 -224.35396484 381.04889648 -224.72949219 380.39794922 C-246.33534998 342.64967428 -256.10198095 299.88310003 -255.9375 256.6875 C-255.93534485 255.66959381 -255.9331897 254.65168762 -255.93096924 253.60293579 C-255.88129854 238.99386477 -255.63040191 224.66174147 -252.625 210.3125 C-252.42632324 209.33764648 -252.22764648 208.36279297 -252.02294922 207.35839844 C-242.97170074 164.08868476 -224.58729329 123.88730666 -195.625 90.3125 C-194.99078125 89.56742187 -194.3565625 88.82234375 -193.703125 88.0546875 C-181.89198485 74.54970167 -169.14139772 61.87831257 -154.625 51.3125 C-153.47505169 50.45600934 -152.32531411 49.59923567 -151.17578125 48.7421875 C-142.98410474 42.7015586 -134.46854922 37.34244929 -125.625 32.3125 C-124.99319824 31.94801758 -124.36139648 31.58353516 -123.71044922 31.20800781 C-85.96217428 9.60215002 -43.19560003 -0.16448095 0 0 Z " fill="#020817" transform="translate(255.625,-0.3125)"/>
<path d="M0 0 C6.3546418 3.1773209 12.03333186 6.09768248 17.75 10.125 C18.76852051 10.8355957 18.76852051 10.8355957 19.80761719 11.56054688 C31.22365726 19.60330382 41.93785236 28.30871438 52 38 C52.9890332 38.94818604 52.9890332 38.94818604 53.99804688 39.91552734 C63.48630305 49.05997479 72.2262044 58.35734009 80 69 C80.85806152 70.15105017 81.71613451 71.30209177 82.57421875 72.453125 C88.61236829 80.64430614 93.97095521 89.15804105 99 98 C99.36448242 98.63180176 99.72896484 99.26360352 100.10449219 99.91455078 C121.71034998 137.66282572 131.47698095 180.42939997 131.3125 223.625 C131.31034485 224.64290619 131.3081897 225.66081238 131.30596924 226.70956421 C131.25629854 241.31863523 131.00540191 255.65075853 128 270 C127.70198486 271.46228027 127.70198486 271.46228027 127.39794922 272.95410156 C118.34670074 316.22381524 99.96229329 356.42519334 71 390 C70.36578125 390.74507813 69.7315625 391.49015625 69.078125 392.2578125 C57.26698485 405.76279833 44.51639772 418.43418743 30 429 C28.85005169 429.85649066 27.70031411 430.71326433 26.55078125 431.5703125 C18.35910474 437.6109414 9.84354922 442.97005071 1 448 C0.36819824 448.36448242 -0.26360352 448.72896484 -0.91455078 449.10449219 C-38.66282572 470.71034998 -81.42939997 480.47698095 -124.625 480.3125 C-125.64290619 480.31034485 -126.66081238 480.3081897 -127.70956421 480.30596924 C-142.31629035 480.25630651 -156.65410687 480.01368509 -171 477 C-172.4862085 476.69400879 -172.4862085 476.69400879 -174.00244141 476.38183594 C-188.68535281 473.27761679 -202.86771475 469.02283114 -217 464 C-217 463.67 -217 463.34 -217 463 C-216.1435791 463.01571045 -215.2871582 463.0314209 -214.40478516 463.04760742 C-211.1805247 463.0992043 -207.956477 463.13657546 -204.73193359 463.16479492 C-203.34514373 463.17973947 -201.95839993 463.20010278 -200.57177734 463.22631836 C-192.99292885 463.36585673 -186.08455504 463.28904839 -178.90063477 460.57641602 C-177 460 -177 460 -174.3125 460.75 C-173.549375 461.1625 -172.78625 461.575 -172 462 C-167.28309849 462.83892769 -162.73444969 463.12827459 -157.94921875 463.1328125 C-157.29688766 463.13404114 -156.64455658 463.13526978 -155.97245789 463.13653564 C-153.87742807 463.13821571 -151.78251763 463.1318917 -149.6875 463.125 C-148.97434631 463.12477844 -148.26119263 463.12455688 -147.52642822 463.12432861 C-137.78342784 463.12076687 -128.10840905 462.88188292 -118.3984375 462.0234375 C-114.77176511 461.99842597 -112.40017732 462.81944429 -109 464 C-105.35060975 464.35157473 -105.35060975 464.35157473 -101.5625 464.3125 C-100.30566406 464.32925781 -99.04882812 464.34601563 -97.75390625 464.36328125 C-94.00422008 464.22714569 -94.00422008 464.22714569 -90.99169922 462.49560547 C-85.94580631 460.25434327 -80.80709672 460.62755649 -75.37890625 460.70703125 C-73.72905983 460.71339851 -73.72905983 460.71339851 -72.04588318 460.71989441 C-68.55116755 460.73661598 -65.05703979 460.77425705 -61.5625 460.8125 C-59.18555523 460.82755522 -56.80860138 460.84124216 -54.43164062 460.85351562 C-48.62089497 460.88649815 -42.8104895 460.9366327 -37 461 C-34.22702695 388.92499155 -34.14343437 316.82881583 -36.21337891 244.7331543 C-36.23616787 243.93937598 -36.25895683 243.14559767 -36.28243637 242.32776546 C-36.30516743 241.53618321 -36.32789848 240.74460096 -36.35131836 239.92903137 C-36.39697386 238.3368022 -36.44262816 236.74457299 -36.48828125 235.15234375 C-36.5108197 234.37014151 -36.53335815 233.58793926 -36.55657959 232.78203392 C-37.10258541 213.6909855 -37.37894366 194.59692805 -37.625 175.5 C-37.63524578 174.7130714 -37.64549156 173.92614281 -37.65604782 173.11536789 C-37.77801622 163.74366201 -37.89353131 154.3718964 -38 145 C-39.07668945 145.00435059 -40.15337891 145.00870117 -41.26269531 145.01318359 C-42.70117163 145.01670352 -44.13964821 145.02011575 -45.578125 145.0234375 C-46.28469238 145.02657959 -46.99125977 145.02972168 -47.71923828 145.03295898 C-64.67223178 145.06222192 -64.67223178 145.06222192 -70 142 C-71.06151387 127.32836185 -71.11106651 112.70520624 -71 98 C-55.69984993 97.93230854 -40.42037316 98.1277343 -25.125 98.5 C-23.05729713 98.54841102 -20.98958879 98.59658899 -18.921875 98.64453125 C-13.94784991 98.76035181 -8.97390812 98.87926472 -4 99 C-3.34 100.98 -2.68 102.96 -2 105 C-1.67 105 -1.34 105 -1 105 C-0.67 70.35 -0.34 35.7 0 0 Z " fill="#020817" transform="translate(381,32)"/>
<path d="M0 0 C5.875 2.875 5.875 2.875 7 4 C7.09535213 5.36608326 7.1218867 6.73705455 7.12025452 8.10646057 C7.12231651 9.43375183 7.12231651 9.43375183 7.12442017 10.78785706 C7.12082489 11.76608932 7.11722961 12.74432159 7.11352539 13.75219727 C7.11367142 14.7764682 7.11381744 15.80073914 7.1139679 16.85604858 C7.11326828 20.25952229 7.10547363 23.66294204 7.09765625 27.06640625 C7.09579224 29.41910268 7.09436826 31.7717995 7.09336853 34.12449646 C7.08954199 40.33056705 7.07971055 46.5366144 7.06866455 52.74267578 C7.05845334 59.06998378 7.05387154 65.39729552 7.04882812 71.72460938 C7.0380884 84.14974982 7.02101036 96.57487298 7 109 C6.01 109 5.02 109 4 109 C3 108 3 108 2.9375 105.4375 C2.9684375 104.2309375 2.9684375 104.2309375 3 103 C1.75202637 103.00523682 0.50405273 103.01047363 -0.78173828 103.01586914 C-5.52701058 103.03432416 -10.27227991 103.04557577 -15.01757812 103.05493164 C-17.04981016 103.05988129 -19.08203879 103.06664269 -21.11425781 103.07543945 C-24.07878471 103.08792631 -27.04326361 103.09332153 -30.0078125 103.09765625 C-30.87858429 103.10281754 -31.74935608 103.10797882 -32.64651489 103.11329651 C-43.13288769 103.11417727 -53.48712614 102.4778579 -64 102 C-63.34 116.52 -62.68 131.04 -62 146 C-58.74837612 147.08387463 -56.00069641 147.30312015 -52.58203125 147.53515625 C-50.70161133 147.66567383 -50.70161133 147.66567383 -48.78320312 147.79882812 C-46.81770508 147.9293457 -46.81770508 147.9293457 -44.8125 148.0625 C-43.47718888 148.1539375 -42.14190204 148.24573025 -40.80664062 148.33789062 C-37.53798273 148.5620946 -34.2691196 148.78264926 -31 149 C-30.23538237 155.70890455 -29.82275667 162.34521625 -29.71875 169.0949707 C-29.70070313 170.05136948 -29.68265625 171.00776825 -29.6640625 171.9931488 C-29.6056199 175.13730383 -29.55285048 178.28152769 -29.5 181.42578125 C-29.45938538 183.65456362 -29.41836169 185.88333856 -29.37695312 188.11210632 C-29.26866137 193.98815149 -29.16494619 199.86426782 -29.0625 205.74041748 C-28.90017571 215.01778953 -28.73189891 224.2950553 -28.56225967 233.57229614 C-28.5206243 235.85669341 -28.47933358 238.14109698 -28.4383812 240.42550659 C-28.20323731 253.51136356 -27.9152263 266.59248968 -27.51220322 279.6742115 C-26.88083445 300.3364249 -26.84671413 320.99395364 -26.86962891 341.66455078 C-26.87531798 346.83225886 -26.87193966 351.9999153 -26.86618423 357.16762161 C-26.78499416 443.4841917 -26.78499416 443.4841917 -30 465 C-30.91628929 465.00879936 -30.91628929 465.00879936 -31.85108948 465.01777649 C-38.22695463 465.08186577 -44.60232228 465.16632546 -50.9777832 465.26245117 C-53.35499499 465.29564115 -55.73228446 465.32369141 -58.10961914 465.34643555 C-61.53305058 465.38008986 -64.95577396 465.43241301 -68.37890625 465.48828125 C-69.9652462 465.49786613 -69.9652462 465.49786613 -71.58363342 465.50764465 C-77.5497529 465.62567891 -81.66391208 466.34996723 -87 469 C-93.47673519 469.64489976 -100.19290095 469.68813966 -106.5 467.9375 C-110.391688 466.88032446 -113.74497768 467.08873489 -117.75 467.43359375 C-125.31421013 468.02194454 -132.83434488 468.15365872 -140.41894531 468.13037109 C-142.52676339 468.12493093 -144.63437514 468.13040212 -146.7421875 468.13671875 C-148.10937546 468.13605903 -149.4765633 468.13478006 -150.84375 468.1328125 C-152.05224609 468.13168457 -153.26074219 468.13055664 -154.50585938 468.12939453 C-159.41348637 467.94765597 -163.81397841 467.43128058 -168.4375 465.75 C-172.43668673 464.90806595 -174.08948878 465.69100277 -177.75 467.2578125 C-181.29734421 468.4279434 -184.60141856 468.27273908 -188.30859375 468.12890625 C-191.10819719 468.03114232 -193.80517409 468.05136942 -196.59765625 468.15234375 C-214.49799586 468.45532851 -228.84637494 460.88534283 -244 452 C-243.59007812 451.50371094 -243.18015625 451.00742187 -242.7578125 450.49609375 C-239.23945432 446.06026897 -237.15643261 442.55087651 -236 437 C-234.6696875 437.37125 -234.6696875 437.37125 -233.3125 437.75 C-229.93567015 438.33003925 -229.93567015 438.33003925 -227.25 436.3125 C-224.11349677 433.08887168 -222.71282743 430.45422506 -222.6875 425.9375 C-222.84268168 420.44224301 -223.65359169 415.00800579 -226 410 C-228.87064083 408.73751094 -228.87064083 408.73751094 -232 408 C-237.89966538 400.88893666 -238.23303671 394.21768583 -238.3125 385.3125 C-238.34150391 384.24837891 -238.37050781 383.18425781 -238.40039062 382.08789062 C-238.46643947 373.86226925 -237.15694612 368.56549209 -231.67578125 362.375 C-230.50595703 361.199375 -230.50595703 361.199375 -229.3125 360 C-223.5053324 353.25035766 -223.73338492 346.49968886 -224 338 C-207.46666667 334.73846154 -207.46666667 334.73846154 -200.015625 334.30859375 C-197.70558073 333.95492418 -196.02810806 333.13738492 -194 332 C-193.38439855 325.22838401 -195.29379936 319.19077337 -198 313 C-198.98889676 311.9890187 -199.98759621 310.98744041 -201 310 C-202.12202742 306.96800457 -202.02297674 304.26373021 -201.875 301.0625 C-201.80474656 296.70040004 -202.64434502 294.68711214 -205 291 C-204.6875 287.6875 -204.6875 287.6875 -204 285 C-203.34 285 -202.68 285 -202 285 C-202.34224609 283.80503906 -202.34224609 283.80503906 -202.69140625 282.5859375 C-202.97886719 281.52632813 -203.26632813 280.46671875 -203.5625 279.375 C-203.99755859 277.80878906 -203.99755859 277.80878906 -204.44140625 276.2109375 C-205.03309337 272.80977098 -204.75851802 270.34551658 -204 267 C-201.47056372 267.34888776 -200.2038279 267.81127047 -198.3125 269.5625 C-197 272 -197 272 -197 275.8125 C-196.93183937 277.95800446 -196.93183937 277.95800446 -196 280 C-193.39044721 282.13508865 -190.71370275 283.73558674 -187.76171875 285.359375 C-185 287 -185 287 -183.11328125 289.02734375 C-180.27224369 291.6793289 -177.13161456 292.6666022 -173.5 293.8125 C-172.83613281 294.04130859 -172.17226562 294.27011719 -171.48828125 294.50585938 C-168.86165572 295.36305154 -166.44356023 295.99627886 -163.671875 296.01953125 C-160.1416612 293.86676069 -159.80526006 289.07121639 -158.75 285.32421875 C-157.92488915 281.6670868 -157.65474876 278.71145082 -158 275 C-158.99580078 274.87044922 -158.99580078 274.87044922 -160.01171875 274.73828125 C-166.0403322 273.77898364 -168.82721011 272.66370635 -173 268 C-174.32 268 -175.64 268 -177 268 C-177.33 269.32 -177.66 270.64 -178 272 C-180 270 -180 270 -180.1953125 267.6171875 C-180.17210937 266.71226562 -180.14890625 265.80734375 -180.125 264.875 C-180.10695312 263.96492188 -180.08890625 263.05484375 -180.0703125 262.1171875 C-180.04710937 261.41851562 -180.02390625 260.71984375 -180 260 C-181.258125 259.649375 -182.51625 259.29875 -183.8125 258.9375 C-194.18072381 255.44350608 -202.20612047 248.45575026 -210 241 C-209.67 240.34 -209.34 239.68 -209 239 C-208.26885986 239.01571045 -207.53771973 239.0314209 -206.78442383 239.04760742 C-203.4605284 239.11010351 -200.1367568 239.14903752 -196.8125 239.1875 C-195.66201172 239.21263672 -194.51152344 239.23777344 -193.32617188 239.26367188 C-192.21435547 239.27333984 -191.10253906 239.28300781 -189.95703125 239.29296875 C-188.42526245 239.31653442 -188.42526245 239.31653442 -186.86254883 239.34057617 C-182.75096714 238.85139438 -180.13618378 237.39388845 -177.51782227 234.18164062 C-177.12135498 233.51326172 -176.7248877 232.84488281 -176.31640625 232.15625 C-175.8670874 231.40988281 -175.41776855 230.66351563 -174.95483398 229.89453125 C-174.49536377 229.10433594 -174.03589355 228.31414062 -173.5625 227.5 C-173.076604 226.68917969 -172.59070801 225.87835938 -172.09008789 225.04296875 C-169.54530479 220.7659937 -167.17394993 216.44734043 -164.9375 212 C-161.01058168 204.62284131 -154.85639646 198.81998546 -148 194.125 C-144.52957404 191.7118194 -144.52957404 191.7118194 -143 188 C-142.8423415 185.87957244 -142.8423415 185.87957244 -144 184 C-149.19284159 180.73976936 -154.42085251 180.08968188 -160.375 179.3125 C-161.76525391 179.11817383 -161.76525391 179.11817383 -163.18359375 178.91992188 C-165.45460945 178.60385268 -167.72649037 178.29750133 -170 178 C-170 179.32 -170 180.64 -170 182 C-169.236875 181.9175 -168.47375 181.835 -167.6875 181.75 C-165 182 -165 182 -163.125 183.625 C-161.62563104 186.79033448 -162.11235084 188.67131565 -163 192 C-164 193 -164 193 -167.875 193.375 C-171.68745415 193.29301174 -171.68745415 193.29301174 -174 191.125 C-175.61898384 186.0656755 -176.26364978 180.62173601 -173.90234375 175.72265625 C-170.34728645 172.50339492 -165.6688216 173.43913552 -161.1328125 173.6171875 C-151.20703166 174.35777837 -142.34748958 177.15451282 -135 184 C-135.57317327 187.43159581 -136.61639148 188.88882682 -139.1875 191.1875 C-142.72266396 194.53353997 -145.21263104 198.13250956 -147.73828125 202.27734375 C-148.36283203 203.13005859 -148.36283203 203.13005859 -149 204 C-149.66 204 -150.32 204 -151 204 C-151.30744141 204.92232422 -151.30744141 204.92232422 -151.62109375 205.86328125 C-152.74739583 209.2421875 -153.87369792 212.62109375 -155 216 C-155.2347924 218.1763834 -155.2347924 218.1763834 -155.25 220.5625 C-155.27578125 221.34753906 -155.3015625 222.13257813 -155.328125 222.94140625 C-154.8419322 227.47341773 -153.40235028 231.67608664 -152 236 C-151.35973877 236.13575439 -150.71947754 236.27150879 -150.05981445 236.41137695 C-147.14192946 237.03563791 -144.22728307 237.67391915 -141.3125 238.3125 C-140.30509766 238.52583984 -139.29769531 238.73917969 -138.25976562 238.95898438 C-129.04177701 240.99728549 -129.04177701 240.99728549 -125 244 C-125.25 246.375 -125.25 246.375 -126 249 C-126.64066406 249.2990625 -127.28132813 249.598125 -127.94140625 249.90625 C-130.12651409 250.83205453 -130.12651409 250.83205453 -131.07421875 252.8828125 C-131.76106009 255.39393945 -132.13861704 257.39147939 -132 260 C-130.18078611 263.16677973 -127.58903551 265.45348515 -125 268 C-123.60206128 269.6896139 -122.22722864 271.39858595 -120.875 273.125 C-119.58803767 274.75372826 -118.29613438 276.3785613 -117 278 C-116.32582031 278.97066406 -115.65164063 279.94132812 -114.95703125 280.94140625 C-111.25409099 285.36295364 -105.91159909 287.36553133 -100.8125 289.8125 C-83.84807771 298.33487999 -73.18223635 309.11436598 -66 327 C-65.69441162 327.67490479 -65.38882324 328.34980957 -65.07397461 329.04516602 C-61.34739217 337.60756938 -59.99781963 346.53367326 -58.37695312 355.68164062 C-56.22868455 367.18395059 -52.49776049 377.62209625 -47.125 388 C-46.78911865 388.66008057 -46.4532373 389.32016113 -46.10717773 390.00024414 C-41.41527644 400.64676572 -41.41527644 400.64676572 -35 410 C-33.83237513 406.49712539 -33.86142544 403.35806847 -33.87301636 399.71495056 C-33.87145637 398.96710771 -33.86989638 398.21926485 -33.86828911 397.44876009 C-33.86429044 394.93448883 -33.86746471 392.42027761 -33.87060547 389.90600586 C-33.86925066 388.10540735 -33.86747028 386.30480913 -33.86529541 384.50421143 C-33.86072302 379.5999003 -33.86251183 374.69561014 -33.8656745 369.79129863 C-33.86820801 364.63980093 -33.86585696 359.48830502 -33.86428833 354.33680725 C-33.86246578 345.66016316 -33.86487126 336.98352756 -33.86962891 328.30688477 C-33.8750323 318.3388471 -33.87333806 308.37083001 -33.8678025 298.40279287 C-33.86322637 289.81301098 -33.86264377 281.2232352 -33.86524117 272.63345248 C-33.86678452 267.518606 -33.86705277 262.40376909 -33.86370468 257.28892326 C-33.83334782 229.92299002 -33.83334782 229.92299002 -34.64430046 202.57234859 C-35.10044712 192.50393429 -35.11316088 182.45173605 -35.0625 172.375 C-35.05745534 170.56640754 -35.05289787 168.75781366 -35.04882812 166.94921875 C-35.038102 162.63277541 -35.0210162 158.31640498 -35 154 C-35.56523471 154.00092179 -36.13046942 154.00184359 -36.71283245 154.00279331 C-50.52035192 154.02495961 -64.32786823 154.04140141 -78.13540173 154.05181217 C-84.81284971 154.05694986 -91.49028399 154.06407089 -98.16772461 154.07543945 C-104.61922138 154.08635383 -111.07070578 154.09229488 -117.52221107 154.09487724 C-119.975998 154.09671614 -122.42978429 154.10030689 -124.8835659 154.10573006 C-149.57737879 154.1581055 -149.57737879 154.1581055 -160 153 C-160 151.68 -160 150.36 -160 149 C-156.7 149 -153.4 149 -150 149 C-150 133.82 -150 118.64 -150 103 C-164.73374555 103.19725179 -164.73374555 103.19725179 -179.46655273 103.45043945 C-181.33055175 103.46505936 -183.19456689 103.47779647 -185.05859375 103.48828125 C-186.00577271 103.51386108 -186.95295166 103.53944092 -187.92883301 103.5657959 C-194.83966486 103.57027241 -199.30298915 101.85902224 -205 98 C-205.88171875 97.41476563 -206.7634375 96.82953125 -207.671875 96.2265625 C-214.15007069 91.23396807 -219.05608199 86.40918532 -220.71875 78.17578125 C-221.57504247 71.55140753 -221.96879809 65.6886106 -218 60 C-212.76899106 54.76899106 -207.78749162 52.98444363 -200.5 52.6875 C-194.56931578 52.85896536 -190.54522806 54.65203509 -186.0625 58.5625 C-183.51915356 61.99345727 -183.10674492 65.31750418 -183.31640625 69.5234375 C-184.60427507 74.18920225 -187.9711132 76.59872507 -192 79 C-196.02006724 80.4472242 -197.3572761 80.26679105 -201.3125 78.625 C-204 77 -204 77 -205 76 C-205.04080783 74.00041636 -205.04254356 71.99954746 -205 70 C-203.375 69.25 -203.375 69.25 -201 69 C-199.576875 69.99 -199.576875 69.99 -198.125 71 C-195.151631 73.33302494 -195.151631 73.33302494 -191.6875 72.8125 C-189.10526602 72.26267316 -189.10526602 72.26267316 -188 71 C-187.54820131 65.10362583 -187.54820131 65.10362583 -190 60 C-194.77431859 57.6710641 -199.78539645 57.27195762 -205 58 C-210.32283734 59.86989895 -214.01527074 63.29679026 -217 68 C-217.96624884 73.89411793 -216.77732991 77.81539168 -213.6796875 82.890625 C-210.72570032 86.60028332 -207.14796424 88.79528988 -203 91 C-201.845 91.61875 -200.69 92.2375 -199.5 92.875 C-189.28004539 96.26125243 -177.51174254 94.74574791 -167.89453125 90.46484375 C-154.55471089 83.71392252 -142.20493573 74.59834353 -130.66015625 65.1328125 C-125.21221328 60.76485822 -119.5717081 56.64235238 -113.97216797 52.47167969 C-111.95687312 50.96781767 -109.94700077 49.45690525 -107.9375 47.9453125 C-73.95421029 22.45577559 -73.95421029 22.45577559 -59.58959961 21.65869141 C-58.7244725 21.60838776 -57.8593454 21.55808411 -56.96800232 21.5062561 C-56.03883499 21.45520721 -55.10966766 21.40415833 -54.15234375 21.3515625 C-52.1646857 21.23223368 -50.17705633 21.11242645 -48.18945312 20.9921875 C-45.07194768 20.80735226 -41.95437803 20.62593538 -38.83618164 20.453125 C-35.81584792 20.28395363 -32.79668493 20.10001463 -29.77734375 19.9140625 C-28.86234604 19.86706207 -27.94734833 19.82006165 -27.00462341 19.77163696 C-20.38155705 19.3490472 -14.33677979 17.95075428 -8 16 C-8 15.34 -8 14.68 -8 14 C-7.236875 13.319375 -6.47375 12.63875 -5.6875 11.9375 C-2.31759204 8.25411223 -1.27201098 4.74677268 0 0 Z " fill="#F6F6F6" transform="translate(374,28)"/>
<path d="M0 0 C1.6644543 1.12046862 3.26445418 2.33504244 4.85766602 3.5546875 C6.30592773 4.62976563 6.30592773 4.62976563 7.78344727 5.7265625 C8.46793945 6.32984375 9.15243164 6.933125 9.85766602 7.5546875 C9.85766602 8.2146875 9.85766602 8.8746875 9.85766602 9.5546875 C10.51766602 9.5546875 11.17766602 9.5546875 11.85766602 9.5546875 C17.50652282 19.10599881 20.03640776 28.40463774 17.73266602 39.4296875 C15.25098424 48.35729596 11.83649525 53.63889196 3.85766602 58.5546875 C-6.15247664 63.84811685 -17.48503414 63.83385668 -28.14233398 60.5546875 C-28.14233398 59.8946875 -28.14233398 59.2346875 -28.14233398 58.5546875 C-28.69920898 58.3484375 -29.25608398 58.1421875 -29.82983398 57.9296875 C-33.73281606 55.60899545 -36.18909673 52.18880851 -38.45483398 48.3046875 C-40.51365081 40.06942019 -39.18167442 33.63549551 -35.09936523 26.20703125 C-31.22792634 20.96011108 -26.59108448 19.20702417 -20.33374023 18.0234375 C-14.86528722 17.59870328 -11.72355344 18.33937875 -7.51733398 21.9296875 C-4.49714686 24.92522003 -3.27249425 26.56918837 -2.70483398 30.8671875 C-3.15120026 34.6294175 -3.22865315 35.17360658 -5.82983398 37.5546875 C-9.14233398 39.5546875 -9.14233398 39.5546875 -11.76733398 39.6171875 C-14.53491331 38.37905991 -16.01459501 36.68242647 -18.14233398 34.5546875 C-19.46233398 34.5546875 -20.78233398 34.5546875 -22.14233398 34.5546875 C-22.14233398 36.5346875 -22.14233398 38.5146875 -22.14233398 40.5546875 C-17.16396923 43.61829658 -12.86423655 44.51514972 -7.14233398 43.5546875 C-4.43701103 42.30347563 -2.26209826 40.67445177 -0.14233398 38.5546875 C0.80852836 30.12044626 0.80852836 30.12044626 -1.37670898 22.140625 C-4.78598786 18.17438472 -7.75829052 15.67138136 -13.12670898 15.21875 C-14.71512413 15.19484409 -16.30374101 15.18224151 -17.89233398 15.1796875 C-18.67866211 15.15519531 -19.46499023 15.13070312 -20.27514648 15.10546875 C-26.07236263 15.07657897 -29.41198005 16.16489579 -34.14233398 19.5546875 C-40.89908801 26.84595147 -42.68739318 35.20508082 -42.44702148 44.88671875 C-41.5829401 52.45296983 -37.14614492 56.95806818 -31.75170898 61.98828125 C-31.22061523 62.50519531 -30.68952148 63.02210937 -30.14233398 63.5546875 C-30.14233398 63.8846875 -30.14233398 64.2146875 -30.14233398 64.5546875 C-69.08233398 64.5546875 -108.02233398 64.5546875 -148.14233398 64.5546875 C-148.14233398 63.8946875 -148.14233398 63.2346875 -148.14233398 62.5546875 C-146.80041992 61.81025391 -146.80041992 61.81025391 -145.43139648 61.05078125 C-138.03767845 56.91280515 -130.97660031 52.57959411 -124.14233398 47.5546875 C-122.87299034 46.62864903 -121.60344316 45.70288954 -120.33374023 44.77734375 C-117.70668633 42.85870179 -115.08251055 40.93626132 -112.46264648 39.0078125 C-111.88417969 38.58306641 -111.30571289 38.15832031 -110.7097168 37.72070312 C-109.39735574 36.74440462 -108.10683481 35.73883966 -106.82202148 34.7265625 C-105.14233398 33.5546875 -105.14233398 33.5546875 -103.14233398 33.5546875 C-103.14233398 32.8946875 -103.14233398 32.2346875 -103.14233398 31.5546875 C-101.00753008 29.88762153 -98.87225901 28.3348677 -96.64233398 26.8046875 C-95.34495657 25.89785378 -94.04807802 24.99030592 -92.75170898 24.08203125 C-92.12458008 23.64487793 -91.49745117 23.20772461 -90.85131836 22.75732422 C-88.83180304 21.33616244 -86.85606539 19.86432983 -84.89233398 18.3671875 C-80.3959151 14.96862036 -75.79613504 11.73374143 -71.14233398 8.5546875 C-70.31088867 7.97589844 -69.47944336 7.39710937 -68.62280273 6.80078125 C-65.85092934 4.94316895 -63.02163637 3.24076548 -60.14233398 1.5546875 C-59.10979492 0.89597656 -58.07725586 0.23726562 -57.01342773 -0.44140625 C-41.35302134 -9.43974906 -15.41252967 -9.42422196 0 0 Z " fill="#020817" transform="translate(356.142333984375,59.4453125)"/>
<path d="M0 0 C8.57075848 -0.06942626 17.14140001 -0.12277341 25.71236992 -0.15543652 C29.69197374 -0.17111101 33.67138559 -0.19238138 37.65087891 -0.22631836 C41.48934956 -0.25884887 45.32763524 -0.27683957 49.16623306 -0.28463173 C50.63272134 -0.29018666 52.09919918 -0.30103379 53.56560898 -0.31719017 C55.61541591 -0.33888161 57.66445275 -0.34197055 59.71435547 -0.34057617 C60.88239716 -0.34723801 62.05043884 -0.35389984 63.25387573 -0.36076355 C64.16009674 -0.24171158 65.06631775 -0.12265961 66 0 C68.05359902 3.08039853 68.25738734 3.79484698 68.31884766 7.2878418 C68.33871735 8.14850754 68.35858704 9.00917328 68.37905884 9.8959198 C68.39061005 10.82100845 68.40216125 11.74609711 68.4140625 12.69921875 C68.43342865 13.64940384 68.4527948 14.59958893 68.4727478 15.5785675 C68.53254912 18.6147869 68.57893129 21.65104419 68.625 24.6875 C68.66317926 26.74545928 68.70223096 28.80340258 68.7421875 30.86132812 C68.83825119 35.9074223 68.92228031 40.95359129 69 46 C61.22616278 46.0254933 53.45233646 46.04292678 45.6784668 46.05493164 C43.03751218 46.05993987 40.3965603 46.06674836 37.75561523 46.07543945 C33.94514282 46.08765942 30.13470728 46.09326357 26.32421875 46.09765625 C25.15606125 46.10281754 23.98790375 46.10797882 22.78434753 46.11329651 C15.79936979 46.11376743 8.94302276 45.77145912 2 45 C0.15640021 39.51704491 -0.27011196 34.76517952 -0.1953125 29.00390625 C-0.1924826 28.17036118 -0.18965271 27.3368161 -0.18673706 26.47801208 C-0.17562289 23.8393564 -0.15053515 21.20105152 -0.125 18.5625 C-0.11495885 16.76367681 -0.10583499 14.96484825 -0.09765625 13.16601562 C-0.07571235 8.77721045 -0.04124387 4.38866452 0 0 Z " fill="#020817" transform="translate(233,130)"/>
<path d="M0 0 C2.17067756 1.1414534 4.31504191 2.33370848 6.4375 3.5625 C12.13183517 6.77960119 15.52208037 8.02824121 22 7 C24.40083438 5.64114884 24.40083438 5.64114884 26 4 C26.66 4 27.32 4 28 4 C28.33 3.01 28.66 2.02 29 1 C36.51302401 4.06086164 39.06785 9.79003691 42.3046875 16.7890625 C44.03841345 20.07275544 46.08523475 22.57707989 48.4375 25.4375 C53.72687774 33.26053006 52.37868559 40.94967355 51.3515625 49.91162109 C50.97905988 53.18395314 50.67338309 56.45839836 50.375 59.73828125 C49.70394602 66.84138021 48.88443679 73.92055292 48 81 C47.86223145 82.12599609 47.72446289 83.25199219 47.58251953 84.41210938 C44.66863163 107.33244842 44.66863163 107.33244842 37 116 C36.26394531 116.87140625 35.52789062 117.7428125 34.76953125 118.640625 C32.89074603 120.80870989 30.97627282 122.92106366 29 125 C22.64583333 121.29166667 22.64583333 121.29166667 21 118 C20.85138971 110.42087518 25.49366605 105.39869901 29.77734375 99.58984375 C37.96431884 88.28572716 41.49854513 78.96757158 40 65 C38.36433962 57.49520532 34.53380975 51.3003644 30.61328125 44.77734375 C26.66548012 37.98100815 25.46419811 31.81133375 25 24 C17.14549178 21.68985052 9.46074113 20.44890316 1.32080078 19.82275391 C-3.336137 19.40777925 -7.1059953 18.81035202 -11 16 C-12.09375 12.96875 -12.09375 12.96875 -12.5 9.5 C-12.6546875 8.3553125 -12.809375 7.210625 -12.96875 6.03125 C-13 3 -13 3 -11 0 C-7.02371382 -1.32542873 -3.96506201 -1.14436267 0 0 Z " fill="#030917" transform="translate(201,344)"/>
<path d="M0 0 C5.875 2.875 5.875 2.875 7 4 C7.09535213 5.36608326 7.1218867 6.73705455 7.12025452 8.10646057 C7.12231651 9.43375183 7.12231651 9.43375183 7.12442017 10.78785706 C7.11902725 12.25520546 7.11902725 12.25520546 7.11352539 13.75219727 C7.11367142 14.7764682 7.11381744 15.80073914 7.1139679 16.85604858 C7.11326828 20.25952229 7.10547363 23.66294204 7.09765625 27.06640625 C7.09579224 29.41910268 7.09436826 31.7717995 7.09336853 34.12449646 C7.08954199 40.33056705 7.07971055 46.5366144 7.06866455 52.74267578 C7.05845334 59.06998378 7.05387154 65.39729552 7.04882812 71.72460938 C7.0380884 84.14974982 7.02101036 96.57487298 7 109 C6.01 109 5.02 109 4 109 C4.66 108.67 5.32 108.34 6 108 C5.67 102.72 5.34 97.44 5 92 C4.67 93.65 4.34 95.3 4 97 C-1.94 96.67 -7.88 96.34 -14 96 C-13.34 95.67 -12.68 95.34 -12 95 C-11.505 93.515 -11.505 93.515 -11 92 C-6.66666667 89 -6.66666667 89 -4 89 C-2.74335022 86.09399739 -2 84.20395416 -2 81 C-2.99 81.33 -3.98 81.66 -5 82 C-4.70609375 81.29875 -4.4121875 80.5975 -4.109375 79.875 C-0.03599229 69.3186279 1.36059305 59.19223814 -3.03515625 48.4765625 C-3.96886318 46.62253512 -4.97743133 44.80653798 -6 43 C-6 42.34 -6 41.68 -6 41 C-6.66 41 -7.32 41 -8 41 C-8 40.34 -8 39.68 -8 39 C-8.56203125 38.72929688 -9.1240625 38.45859375 -9.703125 38.1796875 C-12.96668969 36.50350291 -16.04963998 34.55651214 -19.171875 32.6328125 C-20.10515625 32.09398437 -21.0384375 31.55515625 -22 31 C-22.57075256 30.66569977 -23.14150513 30.33139954 -23.72955322 29.98696899 C-28.74993696 27.23880567 -32.75532644 26.40026384 -38.4375 26.390625 C-39.20304199 26.37408875 -39.96858398 26.35755249 -40.75732422 26.34051514 C-43.17163424 26.29242894 -45.58531645 26.27075383 -48 26.25 C-49.64977051 26.2218071 -51.29951227 26.19187509 -52.94921875 26.16015625 C-56.96609401 26.08668185 -60.98262879 26.03686828 -65 26 C-64.67 24.68 -64.34 23.36 -64 22 C-62.69442139 21.92483154 -61.38884277 21.84966309 -60.04370117 21.7722168 C-55.15444381 21.48759875 -50.26623051 21.18754616 -45.37817383 20.88305664 C-43.27100213 20.75390793 -41.16357663 20.62882816 -39.0559082 20.50805664 C-36.00915341 20.33274018 -32.96364152 20.14232915 -29.91796875 19.94921875 C-28.99042282 19.89908127 -28.06287689 19.84894379 -27.10722351 19.79728699 C-20.45159082 19.35484407 -14.36940351 17.96169804 -8 16 C-8 15.34 -8 14.68 -8 14 C-7.236875 13.319375 -6.47375 12.63875 -5.6875 11.9375 C-2.31759204 8.25411223 -1.27201098 4.74677268 0 0 Z " fill="#E3E3E3" transform="translate(374,28)"/>
<path d="M0 0 C0.79470703 0.00217529 1.58941406 0.00435059 2.40820312 0.0065918 C7.20273451 0.18297759 10.3209265 0.74765619 14.0625 4 C19.14958303 9.61698751 19.60042521 13.88754682 19.5234375 21.34765625 C19.05404911 24.74873316 18.78256392 25.86698404 16.1875 28 C11.15478809 30.71766443 7.77573237 31.25307166 2.0625 30.6875 C-3.02840909 28.59659091 -3.02840909 28.59659091 -4.9375 26.6875 C-4.97830783 24.68791636 -4.98004356 22.68704746 -4.9375 20.6875 C-2.75 19.875 -2.75 19.875 0.0625 19.6875 C0.866875 20.5125 1.67125 21.3375 2.5 22.1875 C4.83863629 25.05121034 4.83863629 25.05121034 8.1875 24.6875 C11.79958488 23.50533873 11.79958488 23.50533873 14.0625 20.6875 C14.5621482 17.37733067 14.79838718 14.92807609 13.04296875 11.96875 C10.4087329 8.72171608 7.91149023 5.94438717 3.64453125 5.3515625 C-3.10360597 5.25638426 -7.11427563 6.29944218 -12.9375 9.6875 C-13.5975 9.6875 -14.2575 9.6875 -14.9375 9.6875 C-15.205625 10.368125 -15.47375 11.04875 -15.75 11.75 C-16.9375 14.6875 -16.9375 14.6875 -18.5625 17.875 C-20.75644698 23.05046466 -21.00217474 28.64482661 -19.140625 33.96484375 C-17.44162111 37.47394025 -15.43877433 40.68597081 -12.9375 43.6875 C-13.9275 43.6875 -14.9175 43.6875 -15.9375 43.6875 C-16.2675 44.3475 -16.5975 45.0075 -16.9375 45.6875 C-17.90421756 44.63262267 -18.86048745 43.56816719 -19.8125 42.5 C-20.34617187 41.90832031 -20.87984375 41.31664062 -21.4296875 40.70703125 C-25.602468 35.11809985 -25.50502682 29.38972144 -24.9375 22.6875 C-23.72325436 15.7489535 -21.11614572 9.58795401 -15.9375 4.6875 C-10.56936302 0.95981233 -6.49076664 -0.05654215 0 0 Z " fill="#E0E0E0" transform="translate(337.9375,73.3125)"/>
<path d="M0 0 C0 0.66 0 1.32 0 2 C0.99 2.99 0.99 2.99 2 4 C0.31197266 4.69222656 0.31197266 4.69222656 -1.41015625 5.3984375 C-17.58051301 12.20076049 -30.77535699 21.61147417 -44.64794922 32.265625 C-46.30407671 33.53508376 -47.96442822 34.79886369 -49.625 36.0625 C-51.09839844 37.19365234 -51.09839844 37.19365234 -52.6015625 38.34765625 C-55 40 -55 40 -57 40 C-57 40.66 -57 41.32 -57 42 C-58.40185547 43.2175293 -58.40185547 43.2175293 -60.3671875 44.57421875 C-61.08310059 45.07348877 -61.79901367 45.57275879 -62.53662109 46.0871582 C-63.30828613 46.615271 -64.07995117 47.14338379 -64.875 47.6875 C-65.65568848 48.22914795 -66.43637695 48.7707959 -67.24072266 49.32885742 C-68.79415267 50.40632989 -70.34929804 51.48133398 -71.90625 52.55371094 C-74.41176491 54.28443276 -76.8932713 56.0478942 -79.375 57.8125 C-86.30001274 62.64582801 -93.30892542 67.46626303 -101 71 C-101 70.01 -101 69.02 -101 68 C-101.66 67.67 -102.32 67.34 -103 67 C-102.33097656 66.63390625 -101.66195312 66.2678125 -100.97265625 65.890625 C-88.8280433 59.04399757 -77.43765912 50.96925567 -66.66015625 42.1328125 C-61.21221328 37.76485822 -55.5717081 33.64235238 -49.97216797 29.47167969 C-47.95687312 27.96781767 -45.94700077 26.45690525 -43.9375 24.9453125 C-10.67978392 0 -10.67978392 0 0 0 Z " fill="#DADADA" transform="translate(310,51)"/>
<path d="M0 0 C3.94604248 1.76533479 5.58844863 5.2460926 7.375 9.0625 C8.1875 12.5625 8.1875 12.5625 8.375 15.0625 C5.69412713 16.67102372 3.85459733 17.13306307 0.6875 17.5625 C-0.9521875 17.81 -0.9521875 17.81 -2.625 18.0625 C-2.955 18.7225 -3.285 19.3825 -3.625 20.0625 C-7.04732972 21.20327657 -9.71173217 21.16065117 -13.3125 21.125 C-15.08173828 21.11146484 -15.08173828 21.11146484 -16.88671875 21.09765625 C-18.24216797 21.08025391 -18.24216797 21.08025391 -19.625 21.0625 C-21.50833798 17.37115756 -22.55548969 14.62851253 -23.0625 10.5 C-20.96496146 5.48414697 -17.54093311 4.37296847 -12.70703125 2.22265625 C-8.23136736 0.53790064 -4.76883342 0.11354365 0 0 Z " fill="#060C1A" transform="translate(212.625,460.9375)"/>
<path d="M0 0 C7.72012568 0.92164422 14.85326097 1.85543483 22 5 C22.2994134 10.58905018 22.29065142 16.21563991 19 21 C15.71129742 23.08683127 14.27913104 23.06219934 10.44140625 22.20703125 C9.14248748 21.75908266 7.84948068 21.29367423 6.5625 20.8125 C5.59860352 20.47895508 5.59860352 20.47895508 4.61523438 20.13867188 C-6.37823874 16.24352252 -6.37823874 16.24352252 -8 13 C-7.39421747 10.98072489 -6.73080266 8.97746603 -6 7 C-5.34 7 -4.68 7 -4 7 C-3.71125 6.401875 -3.4225 5.80375 -3.125 5.1875 C-2 3 -2 3 0 0 Z " fill="#020817" transform="translate(158,459)"/>
<path d="M0 0 C1.26582219 3.86723631 1.1118765 7.73151262 1.0625 11.75 C1.05798828 12.44738281 1.05347656 13.14476562 1.04882812 13.86328125 C1.0371002 15.57555803 1.01916653 17.28779033 1 19 C-5.42434247 21.32194092 -11.46894726 21.26409929 -18.25 21.1875 C-19.31863281 21.18685547 -20.38726562 21.18621094 -21.48828125 21.18554688 C-28.37348749 21.14789994 -35.15540056 20.74164051 -42 20 C-35.59729756 15.02679564 -28.76321191 12.482028 -21.0625 10.1875 C-14.62374124 8.1805287 -9.64202021 5.99921886 -4.62890625 1.3203125 C-3 0 -3 0 0 0 Z " fill="#030918" transform="translate(339,466)"/>
<path d="M0 0 C3.92029204 3.41982923 5.35352225 5.73047659 5.8125 10.9375 C5.59977602 15.20487191 4.48609682 17.16040201 1.375 20.0625 C-2.02353472 22.59345103 -4.64590687 24.1893084 -9 24 C-14.12903226 21.87096774 -14.12903226 21.87096774 -16 20 C-16.04080783 18.00041636 -16.04254356 15.99954746 -16 14 C-14.375 13.25 -14.375 13.25 -12 13 C-11.05125 13.66 -10.1025 14.32 -9.125 15 C-6.151631 17.33302494 -6.151631 17.33302494 -2.6875 16.8125 C-0.10526602 16.26267316 -0.10526602 16.26267316 1 15 C1.45179869 9.10362583 1.45179869 9.10362583 -1 4 C-5.77431859 1.6710641 -10.78539645 1.27195762 -16 2 C-21.32283734 3.86989895 -25.01527074 7.29679026 -28 12 C-29.18676412 19.12058474 -26.50683458 23.8880883 -23 30 C-24.32 29.67 -25.64 29.34 -27 29 C-27.33 29.66 -27.66 30.32 -28 31 C-31.74401244 24.00032457 -32.68447318 17.88411698 -32 10 C-30.24034858 4.81880416 -27.47184069 2.09588971 -23 -1 C-15.16437649 -4.10468101 -7.38389607 -4.25994004 0 0 Z " fill="#D0D0D0" transform="translate(185,84)"/>
<path d="M0 0 C9.92578084 0.74059087 18.78532292 3.53732532 26.1328125 10.3828125 C25.55978112 13.94659672 24.29562802 15.55346063 21.6953125 18.0078125 C21.07785156 18.59820312 20.46039063 19.18859375 19.82421875 19.796875 C19.26605469 20.32023437 18.70789063 20.84359375 18.1328125 21.3828125 C17.4728125 22.0428125 16.8128125 22.7028125 16.1328125 23.3828125 C16.1328125 22.7228125 16.1328125 22.0628125 16.1328125 21.3828125 C15.4728125 21.0528125 14.8128125 20.7228125 14.1328125 20.3828125 C15.15375 19.0215625 15.15375 19.0215625 16.1953125 17.6328125 C18.28383068 14.69873394 18.28383068 14.69873394 18.2578125 12.1953125 C16.46442095 9.30595945 14.25850784 8.686323 11.1328125 7.3828125 C7.69820463 6.62535564 4.24385528 6.15033806 0.7578125 5.6953125 C-0.16902344 5.56576172 -1.09585938 5.43621094 -2.05078125 5.30273438 C-4.32179695 4.98666518 -6.59367787 4.68031383 -8.8671875 4.3828125 C-8.8671875 5.7028125 -8.8671875 7.0228125 -8.8671875 8.3828125 C-7.7225 8.2590625 -7.7225 8.2590625 -6.5546875 8.1328125 C-3.8671875 8.3828125 -3.8671875 8.3828125 -1.9921875 10.0078125 C-0.49281854 13.17314698 -0.97953834 15.05412815 -1.8671875 18.3828125 C-2.8671875 19.3828125 -2.8671875 19.3828125 -6.7421875 19.7578125 C-10.55464165 19.67582424 -10.55464165 19.67582424 -12.8671875 17.5078125 C-14.48617134 12.448488 -15.13083728 7.00454851 -12.76953125 2.10546875 C-9.21447395 -1.11379258 -4.5360091 -0.17805198 0 0 Z " fill="#C2C2C2" transform="translate(212.8671875,201.6171875)"/>
<path d="M0 0 C0.33 0 0.66 0 1 0 C1.88563089 3.79074537 2.11681301 7.28695898 2.09765625 11.17578125 C2.09443359 12.33271484 2.09121094 13.48964844 2.08789062 14.68164062 C2.07951172 15.87982422 2.07113281 17.07800781 2.0625 18.3125 C2.05798828 19.53001953 2.05347656 20.74753906 2.04882812 22.00195312 C2.03706578 25.00135226 2.02062826 28.00065089 2 31 C-0.56011723 28.46425857 -2.95345456 25.90092143 -5.25 23.125 C-8.73694729 19.0858897 -12.6122748 16.00872585 -17 13 C-15.02535931 11.02535931 -13.81510434 10.39909246 -11.3125 9.3125 C-7.19259225 7.335245 -4.42600559 4.72842519 -1.34765625 1.390625 C-0.90292969 0.93171875 -0.45820313 0.4728125 0 0 Z " fill="#030917" transform="translate(375,41)"/>
<path d="M0 0 C0 0.66 0 1.32 0 2 C2.64 2.33 5.28 2.66 8 3 C8 3.33 8 3.66 8 4 C6.89591797 4.16435547 6.89591797 4.16435547 5.76953125 4.33203125 C0.55214019 5.17977114 -3.60768368 5.88287229 -8 9 C-8.66 9 -9.32 9 -10 9 C-10.268125 9.680625 -10.53625 10.36125 -10.8125 11.0625 C-12 14 -12 14 -13.625 17.1875 C-15.81894698 22.36296466 -16.06467474 27.95732661 -14.203125 33.27734375 C-12.50412111 36.78644025 -10.50127433 39.99847081 -8 43 C-8.99 43 -9.98 43 -11 43 C-11.33 43.66 -11.66 44.32 -12 45 C-12.96671756 43.94512267 -13.92298745 42.88066719 -14.875 41.8125 C-15.40867187 41.22082031 -15.94234375 40.62914062 -16.4921875 40.01953125 C-20.664968 34.43059985 -20.56752682 28.70222144 -20 22 C-18.65009088 14.28623363 -15.52540798 7.4675204 -9.1953125 2.6171875 C-5.87118345 0.5770568 -3.9534334 0 0 0 Z " fill="#DCDCDC" transform="translate(333,74)"/>
<path d="M0 0 C1.32 0.66 2.64 1.32 4 2 C3.95359375 2.60328125 3.9071875 3.2065625 3.859375 3.828125 C3.54283901 9.00228316 3.54283901 9.00228316 5.8125 13.5 C8.01529108 15.15826655 8.01529108 15.15826655 11 16 C11.33 14.35 11.66 12.7 12 11 C14.71675995 11.36712972 16.61063713 11.72744599 18.875 13.3125 C20 15 20 15 20 17 C18.50594412 19.98811176 17.09169546 20.75016567 14 22 C9.38020552 22 6.33423115 21.61482867 2.625 18.8125 C-0.95944979 14.97201809 -1.83671534 12.04105825 -2.25 6.875 C-2.00389434 4.0447849 -1.47466657 2.39633317 0 0 Z " fill="#DADADA" transform="translate(341,14)"/>
<path d="M0 0 C0.66 0.33 1.32 0.66 2 1 C1.34 2.32 0.68 3.64 0 5 C0.66 5.33 1.32 5.66 2 6 C-9.41795098 14.08350512 -21.04022769 21.74697679 -33 29 C-33.33 28.01 -33.66 27.02 -34 26 C-34.66 25.67 -35.32 25.34 -36 25 C-35.33097656 24.63390625 -34.66195312 24.2678125 -33.97265625 23.890625 C-27.46443838 20.22156257 -21.29249532 16.23873152 -15.1875 11.9375 C-14.48310791 11.4434668 -13.77871582 10.94943359 -13.05297852 10.44042969 C-8.48061192 7.18499516 -4.21432543 3.70750459 0 0 Z " fill="#C7C7C7" transform="translate(243,93)"/>
<path d="M0 0 C1.61648437 0.04060547 1.61648437 0.04060547 3.265625 0.08203125 C4.08546875 0.11683594 4.9053125 0.15164062 5.75 0.1875 C6.08 0.8475 6.41 1.5075 6.75 2.1875 C2.79 2.1875 -1.17 2.1875 -5.25 2.1875 C-5.25 3.8375 -5.25 5.4875 -5.25 7.1875 C-4.1053125 7.06375 -4.1053125 7.06375 -2.9375 6.9375 C-0.25 7.1875 -0.25 7.1875 1.625 8.8125 C3.12436896 11.97783448 2.63764916 13.85881565 1.75 17.1875 C0.75 18.1875 0.75 18.1875 -3.125 18.5625 C-6.93745415 18.48051174 -6.93745415 18.48051174 -9.25 16.3125 C-10.62795982 12.00637557 -11.20999881 7.64733699 -10.25 3.1875 C-7.16883766 -0.18780671 -4.4077826 -0.14373204 0 0 Z " fill="#E5E5E5" transform="translate(209.25,202.8125)"/>
<path d="M0 0 C0.33 0 0.66 0 1 0 C1 6.27 1 12.54 1 19 C-3.01987409 20.00496852 -5.6646973 19.93017724 -9.75 19.5625 C-10.92046875 19.46066406 -12.0909375 19.35882813 -13.296875 19.25390625 C-14.18890625 19.17011719 -15.0809375 19.08632812 -16 19 C-15.34 18.67 -14.68 18.34 -14 18 C-13.67 17.01 -13.34 16.02 -13 15 C-8.66666667 12 -8.66666667 12 -6 12 C-5.7525 11.319375 -5.505 10.63875 -5.25 9.9375 C-3.75802092 6.43134917 -1.93164489 3.28379632 0 0 Z " fill="#060C1A" transform="translate(376,105)"/>
<path d="M0 0 C3.40667322 0.44824648 5.07914607 1.05276405 8 3 C8 3.99 8 4.98 8 6 C9.98 6 11.96 6 14 6 C14 6.99 14 7.98 14 9 C6.87494476 11.33406982 6.87494476 11.33406982 2.5625 9.6875 C0 8 0 8 -1 7 C-1.125 4 -1.125 4 -1 1 C-0.67 0.67 -0.34 0.34 0 0 Z " fill="#D9D9D9" transform="translate(170,97)"/>
<path d="M0 0 C3.88602985 0.57570813 6.11172864 2.41575721 9 5 C11.80700834 9.21051251 11.94469338 13.05610463 11 18 C9.19946933 20.36581355 7.56933738 21.39416414 5 23 C5 22.34 5 21.68 5 21 C3.02 21 1.04 21 -1 21 C-0.67 20.34 -0.34 19.68 0 19 C1.99285937 18.62633887 3.99363529 18.29259485 6 18 C7.37768644 16.84431881 7.37768644 16.84431881 7.1875 13.6875 C7.062715 9.44576694 7.062715 9.44576694 5 6 C1.95800528 4.70768358 1.95800528 4.70768358 -1 4 C-0.01 3.67 0.98 3.34 2 3 C2 2.34 2 1.68 2 1 C1.34 0.67 0.68 0.34 0 0 Z " fill="#D1D1D1" transform="translate(179,82)"/>
<path d="M0 0 C5.41139241 0.60126582 5.41139241 0.60126582 7.9375 2.3125 C9 4 9 4 8.78125 5.87890625 C7.82577843 8.47301155 6.56550371 9.73443101 4.5625 11.625 C3.94503906 12.21539062 3.32757813 12.80578125 2.69140625 13.4140625 C2.13324219 13.93742188 1.57507813 14.46078125 1 15 C0.34 15.66 -0.32 16.32 -1 17 C-1 16.34 -1 15.68 -1 15 C-1.66 14.67 -2.32 14.34 -3 14 C-2.01 12.6696875 -2.01 12.6696875 -1 11.3125 C1.01386882 7.97702977 1.50742579 6.75495087 1 3 C0.67 2.01 0.34 1.02 0 0 Z " fill="#E2E2E2" transform="translate(230,208)"/>
<path d="M0 0 C0.33 0 0.66 0 1 0 C1 3.3 1 6.6 1 10 C1.66 10 2.32 10 3 10 C3 6.7 3 3.4 3 0 C3.33 0 3.66 0 4 0 C4.09796875 0.79664062 4.1959375 1.59328125 4.296875 2.4140625 C5.18062779 8.67651764 5.96870243 13.08685609 10 18 C10.66 18.99 11.32 19.98 12 21 C11.01 21 10.02 21 9 21 C8.67 21.66 8.34 22.32 8 23 C7.03328244 21.94512267 6.07701255 20.88066719 5.125 19.8125 C4.59132813 19.22082031 4.05765625 18.62914063 3.5078125 18.01953125 C0.41243906 13.87365543 -0.24811051 10.29658608 -0.125 5.1875 C-0.10695313 4.21167969 -0.08890625 3.23585938 -0.0703125 2.23046875 C-0.04710937 1.49441406 -0.02390625 0.75835937 0 0 Z " fill="#B1B1B1" transform="translate(313,96)"/>
<path d="M0 0 C0.66 0.33 1.32 0.66 2 1 C1.3503125 1.5878125 1.3503125 1.5878125 0.6875 2.1875 C-1.11149895 3.9425414 -1.11149895 3.9425414 -2.125 6.3125 C-4.92994133 10.33291591 -8.86030457 12.47452543 -13 15 C-13 10.93227515 -11.45824496 9.90346505 -8.75 6.9375 C-7.96109375 6.05964844 -7.1721875 5.18179688 -6.359375 4.27734375 C-4.25178788 2.24303367 -2.75239713 0.94687166 0 0 Z " fill="#DFDFDF" transform="translate(272,72)"/>
<path d="M0 0 C0.33 0 0.66 0 1 0 C1.09796875 0.6290625 1.1959375 1.258125 1.296875 1.90625 C2.35137979 7.94238089 4.02467136 12.64440845 7 18 C5.68 17.67 4.36 17.34 3 17 C2.67 17.66 2.34 18.32 2 19 C-2.25587646 13.04177295 -0.85783227 6.96601142 0 0 Z " fill="#C3C3C3" transform="translate(155,96)"/>
<path d="M0 0 C0 0.66 0 1.32 0 2 C2.64 2.33 5.28 2.66 8 3 C8 3.33 8 3.66 8 4 C7.24074219 4.13277344 6.48148437 4.26554687 5.69921875 4.40234375 C4.70535156 4.57894531 3.71148437 4.75554687 2.6875 4.9375 C1.20830078 5.19853516 1.20830078 5.19853516 -0.30078125 5.46484375 C-3.08189213 5.95746847 -3.08189213 5.95746847 -6 7 C-6 5.68 -6 4.36 -6 3 C-6.66 2.67 -7.32 2.34 -8 2 C-4.91190305 0.23537317 -3.76687864 0 0 0 Z " fill="#C3C3C3" transform="translate(333,74)"/>
<path d="M0 0 C0.66 0.33 1.32 0.66 2 1 C1.50628906 1.45890625 1.01257813 1.9178125 0.50390625 2.390625 C-0.13675781 3.00421875 -0.77742188 3.6178125 -1.4375 4.25 C-2.07558594 4.85328125 -2.71367187 5.4565625 -3.37109375 6.078125 C-5.10894237 8.12853632 -5.43391479 9.43084404 -6 12 C-8.0625 13.25 -8.0625 13.25 -10 14 C-10.33 12.35 -10.66 10.7 -11 9 C-9.93458984 8.15115234 -9.93458984 8.15115234 -8.84765625 7.28515625 C-7.92855469 6.55167969 -7.00945312 5.81820312 -6.0625 5.0625 C-5.14597656 4.33160156 -4.22945313 3.60070312 -3.28515625 2.84765625 C-1.59148731 1.48061289 -1.59148731 1.48061289 0 0 Z " fill="#C9C9C9" transform="translate(264,77)"/>
<path d="M0 0 C0.33 0 0.66 0 1 0 C1.66 2.64 2.32 5.28 3 8 C1.02 9.65 -0.96 11.3 -3 13 C-3 12.34 -3 11.68 -3 11 C-4.98 11 -6.96 11 -9 11 C-8.67 10.34 -8.34 9.68 -8 9 C-6.00714063 8.62633887 -4.00636471 8.29259485 -2 8 C-0.03177114 6.03177114 -0.33751619 2.65191291 0 0 Z " fill="#B8B8B8" transform="translate(187,92)"/>
<path d="M0 0 C1.4370809 -0.05422947 2.87475462 -0.09289723 4.3125 -0.125 C5.11300781 -0.14820312 5.91351563 -0.17140625 6.73828125 -0.1953125 C9 0 9 0 12 2 C12 2.66 12 3.32 12 4 C7.71 3.67 3.42 3.34 -1 3 C-0.67 2.01 -0.34 1.02 0 0 Z " fill="#E2E2E2" transform="translate(169,81)"/>
<path d="M0 0 C0.66 0.33 1.32 0.66 2 1 C1.34 2.32 0.68 3.64 0 5 C0.66 5.33 1.32 5.66 2 6 C0.02 6.99 -1.96 7.98 -4 9 C-4.33 8.34 -4.66 7.68 -5 7 C-5.99 7 -6.98 7 -8 7 C-5.36 4.69 -2.72 2.38 0 0 Z " fill="#C2C2C2" transform="translate(243,93)"/>
<path d="M0 0 C0.66 0.33 1.32 0.66 2 1 C0.68 2.32 -0.64 3.64 -2 5 C-1.34 5.66 -0.68 6.32 0 7 C-3.75 10 -3.75 10 -6 10 C-6 9.01 -6 8.02 -6 7 C-6.66 6.67 -7.32 6.34 -8 6 C-5.36 4.02 -2.72 2.04 0 0 Z " fill="#BEBEBE" transform="translate(288,60)"/>
<path d="M0 0 C0.33 1.32 0.66 2.64 1 4 C-2.96 5.98 -2.96 5.98 -7 8 C-7.33 6.68 -7.66 5.36 -8 4 C-7.236875 3.71125 -6.47375 3.4225 -5.6875 3.125 C-2.84970692 2.03730987 -2.84970692 2.03730987 0 0 Z " fill="#DDDDDD" transform="translate(230,105)"/>
<path d="M0 0 C0 0.66 0 1.32 0 2 C3.3 2 6.6 2 10 2 C10 2.33 10 2.66 10 3 C8.06302033 3.33634376 6.12539514 3.66897165 4.1875 4 C2.56908203 4.2784375 2.56908203 4.2784375 0.91796875 4.5625 C-2 5 -2 5 -5 5 C-4.34 4.01 -3.68 3.02 -3 2 C-4.32 2.33 -5.64 2.66 -7 3 C-5.40442685 -0.19114631 -3.35905282 0 0 0 Z " fill="#A9A9A9" transform="translate(168,82)"/>
<path d="M0 0 C0 0.66 0 1.32 0 2 C0.66 2.66 1.32 3.32 2 4 C-4.625 7.125 -4.625 7.125 -8 6 C-6.68 5.67 -5.36 5.34 -4 5 C-4 4.34 -4 3.68 -4 3 C-5.32 2.67 -6.64 2.34 -8 2 C-4.91190305 0.23537317 -3.76687864 0 0 0 Z " fill="#C7C7C7" transform="translate(310,51)"/>
<path d="M0 0 C3.91402949 1.26941497 5.79072873 2.51167694 8 6 C7.01 6 6.02 6 5 6 C4.67 6.66 4.34 7.32 4 8 C1.10067643 5.60490662 0.49831724 3.68754757 0 0 Z " fill="#D0D0D0" transform="translate(317,111)"/>
<path d="M0 0 C0.33 1.32 0.66 2.64 1 4 C0.34 4 -0.32 4 -1 4 C-1 6.97 -1 9.94 -1 13 C-1.66 12.67 -2.32 12.34 -3 12 C-3.08090971 10.37581255 -3.13914995 8.75048255 -3.1875 7.125 C-3.22230469 6.22007813 -3.25710937 5.31515625 -3.29296875 4.3828125 C-3.19628906 3.59648438 -3.09960938 2.81015625 -3 2 C-2.01 1.34 -1.02 0.68 0 0 Z " fill="#DDDDDD" transform="translate(156,92)"/>
<path d="M0 0 C3.96 0 7.92 0 12 0 C12.33 0.66 12.66 1.32 13 2 C6.565 2.495 6.565 2.495 0 3 C0 2.01 0 1.02 0 0 Z " fill="#F8F8F8" transform="translate(203,203)"/>
<path d="M0 0 C-0.57344937 2.86724686 -0.8614515 3.8614515 -3 6 C-5.625 6.125 -5.625 6.125 -8 6 C-3.375 0 -3.375 0 0 0 Z " fill="#E7E7E7" transform="translate(293,60)"/>
<path d="M0 0 C2.9375 0.375 2.9375 0.375 6 1 C6.33 1.66 6.66 2.32 7 3 C6.34 3 5.68 3 5 3 C5.66 4.65 6.32 6.3 7 8 C4.36 6.68 1.72 5.36 -1 4 C-0.01 3.67 0.98 3.34 2 3 C2 2.34 2 1.68 2 1 C1.34 0.67 0.68 0.34 0 0 Z " fill="#B6B6B7" transform="translate(225,205)"/>
<path d="M0 0 C1.06671952 3.20015856 0.94845472 4.88544294 0.5625 8.1875 C0.46066406 9.08855469 0.35882813 9.98960938 0.25390625 10.91796875 C0.17011719 11.60503906 0.08632813 12.29210937 0 13 C-0.66 13 -1.32 13 -2 13 C-2.05391993 11.20866022 -2.09275571 9.41686101 -2.125 7.625 C-2.14820313 6.62726563 -2.17140625 5.62953125 -2.1953125 4.6015625 C-2 2 -2 2 0 0 Z " fill="#FAFAFA" transform="translate(316,93)"/>
<path d="M0 0 C0.66 0 1.32 0 2 0 C1.34 1.65 0.68 3.3 0 5 C0.66 5.33 1.32 5.66 2 6 C-0.31 7.32 -2.62 8.64 -5 10 C-4.38479725 6.00118212 -2.39731331 3.19641774 0 0 Z " fill="#D0D0D0" transform="translate(275,69)"/>
<path d="M0 0 C0.33 0.66 0.66 1.32 1 2 C1.99 2.33 2.98 2.66 4 3 C2.35 4.98 0.7 6.96 -1 9 C-1.33 8.34 -1.66 7.68 -2 7 C-2.66 6.67 -3.32 6.34 -4 6 C-2.68 4.02 -1.36 2.04 0 0 Z " fill="#C5C5C5" transform="translate(231,216)"/>
<path d="M0 0 C0 0.66 0 1.32 0 2 C-1.98 2.99 -3.96 3.98 -6 5 C-6 4.01 -6 3.02 -6 2 C-6.66 1.67 -7.32 1.34 -8 1 C-5.29120665 -0.35439668 -2.99066732 -0.06501451 0 0 Z " fill="#CFCFCF" transform="translate(215,117)"/>
<path d="M0 0 C1.20628008 2.33214148 2.1654738 4.49642139 3 7 C2.34 7.66 1.68 8.32 1 9 C0.67 8.34 0.34 7.68 0 7 C-0.99 7.33 -1.98 7.66 -3 8 C-2.690625 7.236875 -2.38125 6.47375 -2.0625 5.6875 C-1.32106407 3.81210323 -0.63771783 1.91315348 0 0 Z " fill="#C5C5C5" transform="translate(372,102)"/>
<path d="M0 0 C3.26954202 0.56371414 4.82575883 1.49962266 7 4 C5.66666667 4.66666667 4.33333333 5.33333333 3 6 C1.68 5.01 0.36 4.02 -1 3 C-0.01 3 0.98 3 2 3 C2 2.34 2 1.68 2 1 C1.34 0.67 0.68 0.34 0 0 Z " fill="#B1B1B1" transform="translate(179,82)"/>
<path d="M0 0 C0.99 0.33 1.98 0.66 3 1 C2.1875 3.4375 2.1875 3.4375 1 6 C0.01 6.33 -0.98 6.66 -2 7 C-1.125 2.25 -1.125 2.25 0 0 Z " fill="#E3E3E3" transform="translate(252,87)"/>
<path d="M0 0 C1.98 0 3.96 0 6 0 C6 0.66 6 1.32 6 2 C4.1875 3.0625 4.1875 3.0625 2 4 C1.01 3.67 0.02 3.34 -1 3 C-0.67 2.01 -0.34 1.02 0 0 Z " fill="#F3F3F3" transform="translate(300,54)"/>
<path d="M0 0 C1.32 0.66 2.64 1.32 4 2 C3.67 4.64 3.34 7.28 3 10 C2.67 10 2.34 10 2 10 C1.67 8.02 1.34 6.04 1 4 C0.34 4 -0.32 4 -1 4 C-0.67 2.68 -0.34 1.36 0 0 Z " fill="#BFBFBF" transform="translate(341,14)"/>
<path d="M0 0 C1.125 3.75 1.125 3.75 0 6 C0.66 6 1.32 6 2 6 C1.67 6.99 1.34 7.98 1 9 C0.01 9 -0.98 9 -2 9 C-1.125 2.25 -1.125 2.25 0 0 Z " fill="#B6B6B6" transform="translate(316,86)"/>
<path d="M0 0 C0.66 0 1.32 0 2 0 C2 0.66 2 1.32 2 2 C2.66 2.66 3.32 3.32 4 4 C2.02 4.66 0.04 5.32 -2 6 C-2 2 -2 2 0 0 Z " fill="#C5C5C5" transform="translate(298,55)"/>
</svg>
