<?xml version="1.0" encoding="iso-8859-1"?>
<!-- Uploaded to: SVG Repo, www.svgrepo.com, Generator: SVG Repo Mixer Tools -->
<svg height="800px" width="800px" version="1.1" id="Layer_1" xmlns="http://www.w3.org/2000/svg" xmlns:xlink="http://www.w3.org/1999/xlink" 
	 viewBox="0 0 512.002 512.002" xml:space="preserve">
<g>
	<circle style="fill:#77DD00;" cx="182.367" cy="34.566" r="25.603"/>
	<path style="fill:#77DD00;" d="M407.981,143.85c-8.347-32.969-38.212-57.362-73.774-57.362c-29.602,0-54.978,17.077-67.559,41.76
		c-10.863-5.974-23.152-9.672-36.425-9.672c-23.28,0-44.12,10.455-58.08,26.925"/>
</g>
<path style="fill:#6D2C92;" d="M139.688,179.657H71.356c-9.427,0-17.069-7.642-17.069-17.069l0,0
	c0-9.427,7.642-17.069,17.069-17.069h359.286c9.427,0,17.069,7.642,17.069,17.069l0,0c0,9.427-7.642,17.069-17.069,17.069H275.901"
	/>
<circle style="fill:#77DD00;" cx="122.783" cy="94.327" r="17.066"/>
<path style="fill:#956EC4;" d="M88.244,179.657c-19.715,31.027-31.297,67.732-31.297,107.216
	c0,110.668,89.717,200.382,200.387,200.382c110.665,0,200.382-89.715,200.382-200.382c0-39.484-11.581-76.189-31.293-107.216
	L88.244,179.657L88.244,179.657z"/>
<path style="fill:#B77FD8;" d="M78.694,303.799c0-44.389,13.022-85.656,35.188-120.537H428.55c-0.724-1.191-1.379-2.431-2.125-3.607
	H88.244c-19.715,31.027-31.297,67.732-31.297,107.216c0,56.304,23.3,107.105,60.693,143.508
	C93.078,394.298,78.694,350.734,78.694,303.799z"/>
<path style="fill:#6D2C92;" d="M426.424,179.657h-34.586c4.866,17.211,7.558,35.331,7.558,54.11
	c0,110.668-89.717,200.382-200.382,200.382c-37.697,0-72.835-10.603-102.952-28.707c36.48,49.534,95.035,81.812,161.274,81.812
	c110.666,0,200.382-89.715,200.382-200.382C457.717,247.388,446.136,210.682,426.424,179.657z"/>
<path style="fill:#77DD00;" d="M103.415,145.518c20.03,0,36.27,16.238,36.27,36.27v3.272v104.166
	c0,14.097,11.429,25.526,25.526,25.526l0,0c14.099,0,25.529-11.429,25.529-25.526V226.28c0-9.467,7.674-17.141,17.141-17.141l0,0
	c9.467,0,17.141,7.674,17.141,17.141l-0.182,5.513c0,14.099,11.429,25.529,25.529,25.529l0,0c14.097,0,25.526-11.429,25.526-25.529
	v-50.003c0,0-2.299-15.053,7.022-21.396c9.323-6.345,17.882-13.027,17.882-13.027l3.176-1.864L103.415,145.518z"/>
<g>
	<circle style="fill:#FFA81E;" cx="141.492" cy="468.587" r="34.445"/>
	<circle style="fill:#FFA81E;" cx="359.938" cy="468.587" r="34.443"/>
</g>
<g>
	<path style="fill:#FFFFFF;" d="M120.746,392.863c-2.627,0-5.218-1.214-6.881-3.502c-8.817-12.127-16.022-25.34-21.416-39.275
		c-1.695-4.378,0.48-9.3,4.858-10.994c4.378-1.698,9.299,0.48,10.994,4.858c4.864,12.563,11.36,24.478,19.312,35.415
		c2.76,3.797,1.921,9.112-1.875,11.872C124.228,392.335,122.479,392.863,120.746,392.863z"/>
	<path style="fill:#FFFFFF;" d="M88.686,320.36c-3.753,0-7.187-2.504-8.204-6.303l-0.204-0.767
		c-0.066-0.252-0.119-0.504-0.161-0.757l-0.08-0.355c-1.075-4.569,1.756-9.145,6.325-10.22c4.57-1.078,9.145,1.756,10.22,6.326
		c0.063,0.266,0.117,0.527,0.162,0.781l0.159,0.594c1.215,4.534-1.477,9.195-6.01,10.408
		C90.153,320.266,89.413,320.36,88.686,320.36z M85.267,303.186c-4.189,1.711-5.77,6.015-5.162,9.275
		C79.5,308.597,81.592,304.688,85.267,303.186z"/>
</g>
<g>
	<path style="fill:#1C2042;" d="M451.448,329.809c-4.537-1.194-9.188,1.512-10.385,6.05c-9.71,36.821-29.896,69.407-58.524,94.623
		c-6.17-3.375-13.245-5.297-20.76-5.297c-23.696,0-43.006,19.09-43.389,42.697c-20.018,6.902-40.975,10.41-62.39,10.41
		c-24.463,0-47.067-4.184-68.919-12.759c-1.577-22.511-20.383-40.346-43.287-40.346c-5.867,0-11.461,1.176-16.571,3.294
		c-39.852-36.27-62.601-87.545-62.601-141.565c0-35.126,9.596-69.381,27.726-99.224h40.674v7.462c0,4.694,3.804,8.499,8.499,8.499
		c4.695,0,8.499-3.805,8.499-8.499v-13.829c0-0.461-0.022-0.917-0.035-1.375c0.023-0.25,0.039-0.502,0.039-0.757
		c0-0.601-0.063-1.185-0.182-1.751c-0.775-8.979-4.211-17.204-9.514-23.889h138.599c-5.323,6.707-8.762,14.967-9.522,23.982
		c-0.107,0.536-0.164,1.09-0.164,1.658c0,0.206,0.016,0.409,0.031,0.611c-0.017,0.505-0.039,1.011-0.039,1.521v0.001
		c0,0,0,0,0,0.001v50.003c0,9.39-7.639,17.03-17.027,17.03c-9.348,0-16.961-7.571-17.029-16.903l0.178-5.359
		c0.003-0.094,0.005-0.188,0.005-0.281c0-14.138-11.502-25.64-25.64-25.64c-14.138,0-25.64,11.502-25.64,25.64v62.946
		c0,9.39-7.639,17.027-17.03,17.027c-9.389,0-17.027-7.639-17.027-17.027c0-4.694-3.804-8.499-8.499-8.499
		c-4.695,0-8.499,3.805-8.499,8.499c0,18.762,15.264,34.025,34.025,34.025c18.763,0,34.028-15.264,34.028-34.025v-62.946
		c0-4.765,3.877-8.642,8.642-8.642c4.725,0,8.577,3.813,8.641,8.524l-0.177,5.35c-0.003,0.094-0.005,0.187-0.005,0.281
		c0,18.763,15.264,34.028,34.026,34.028s34.025-15.264,34.025-34.028v-43.638h133.445c10.883,17.906,18.683,37.314,23.198,57.761
		c0.875,3.966,4.39,6.668,8.29,6.668c0.606,0,1.223-0.066,1.84-0.202c4.584-1.012,7.479-5.548,6.466-10.132
		c-4.252-19.255-11.177-37.663-20.632-54.896c11.032-2.834,19.209-12.863,19.209-24.767c0-14.098-11.469-25.568-25.568-25.568H416.7
		c-6.829-21.577-22.079-39.604-42.449-49.932c-4.186-2.125-9.3-0.449-11.424,3.737c-2.122,4.186-0.449,9.301,3.737,11.424
		c14.641,7.422,25.955,19.821,32.06,34.771H196.783c10.502-6.432,22.667-9.942,35.28-9.942c11.052,0,21.931,2.9,32.329,8.619
		c2.016,1.108,4.395,1.352,6.593,0.677c2.198-0.677,4.03-2.215,5.074-4.264c10.89-21.364,31.42-35.17,54.919-36.932
		c1.668-0.126,3.374-0.189,5.069-0.189c4.695,0,8.499-3.805,8.499-8.499c0-4.694-3.804-8.499-8.499-8.499
		c-2.119,0-4.254,0.079-6.341,0.237c-26.692,2.002-50.305,16.349-64.628,38.875c-10.665-4.663-21.737-7.022-33.014-7.022
		c-23.569,0-45.896,9.777-61.887,26.939H73.195c-14.098,0-25.568,11.47-25.568,25.568c0,13.953,11.236,25.325,25.134,25.557
		c-16.462,30.357-25.134,64.405-25.134,99.235c0,57.448,23.633,112.037,65.161,151.344c-7.663,7.832-12.399,18.538-12.399,30.335
		c0,23.934,19.473,43.407,43.407,43.407c18.94,0,35.076-12.199,40.989-29.148c22.637,8.358,46.035,12.438,71.216,12.438
		c22.449,0,44.444-3.537,65.513-10.514c6.43,15.941,22.05,27.225,40.266,27.225c23.934,0,43.407-19.473,43.407-43.407
		c0-10.226-3.563-19.63-9.502-27.057c30.158-27.209,51.454-62.061,61.815-101.342C458.697,335.656,455.988,331.006,451.448,329.809z
		 M441.051,162.124c0,4.725-3.845,8.57-8.57,8.57H288.352c4.181-10.053,14.104-17.141,25.653-17.141h118.478
		C437.207,153.554,441.051,157.397,441.051,162.124z M64.626,162.124c0-4.725,3.845-8.57,8.57-8.57h32.059
		c11.548,0,21.469,7.088,25.652,17.141H73.195C68.469,170.694,64.626,166.849,64.626,162.124z M143.796,495.002
		c-14.563,0-26.409-11.848-26.409-26.409c0-14.563,11.846-26.409,26.409-26.409c14.563,0,26.409,11.848,26.409,26.409
		C170.205,483.156,158.359,495.002,143.796,495.002z M361.78,495.002c-14.563,0-26.409-11.848-26.409-26.409
		c0-14.563,11.846-26.409,26.409-26.409c5.949,0,11.443,1.979,15.862,5.31c0.222,0.194,0.452,0.375,0.69,0.543
		c6.005,4.846,9.857,12.258,9.857,20.557C388.189,483.156,376.342,495.002,361.78,495.002z"/>
	<path style="fill:#1C2042;" d="M455.877,278.417c-4.695,0-8.499,3.805-8.499,8.499c0,2.756-0.059,5.518-0.173,8.21
		c-0.201,4.689,3.438,8.654,8.128,8.855c0.124,0.006,0.247,0.008,0.369,0.008c4.526,0,8.288-3.57,8.484-8.135
		c0.125-2.934,0.189-5.94,0.189-8.937C464.376,282.222,460.572,278.417,455.877,278.417z"/>
	<path style="fill:#1C2042;" d="M184.2,68.205c18.804,0,34.102-15.298,34.102-34.102S203.004,0,184.2,0
		s-34.102,15.298-34.102,34.102C150.099,52.907,165.397,68.205,184.2,68.205z M184.2,16.998c9.43,0,17.104,7.673,17.104,17.104
		s-7.673,17.104-17.104,17.104c-9.432,0-17.104-7.673-17.104-17.104S174.77,16.998,184.2,16.998z"/>
	<path style="fill:#1C2042;" d="M124.621,119.427c14.098,0,25.568-11.47,25.568-25.568s-11.469-25.568-25.568-25.568
		s-25.568,11.47-25.568,25.568C99.053,107.958,110.523,119.427,124.621,119.427z M124.621,85.29c4.725,0,8.57,3.845,8.57,8.57
		c0,4.725-3.845,8.57-8.57,8.57c-4.727,0-8.57-3.845-8.57-8.57C116.051,89.134,119.895,85.29,124.621,85.29z"/>
	<path style="fill:#1C2042;" d="M141.524,239.965c4.695,0,8.499-3.805,8.499-8.499v-3.56c0-4.694-3.804-8.499-8.499-8.499
		c-4.695,0-8.499,3.805-8.499,8.499v3.56C133.025,236.16,136.83,239.965,141.524,239.965z"/>
</g>
</svg>