<svg xmlns="http://www.w3.org/2000/svg" width="593.901" height="72.002" viewBox="-1.2 -4.001 599.901 78.002"><path fill="#5eead4" fill-rule="evenodd" stroke="#5eead4" stroke-linecap="round" stroke-width=".945" d="M531.8 31.401v3h-29.7l30.6-30.4h-33.8v64h38.8v3h-41.8v-70H540l-30.6 30.4h22.4ZM261 71.001v-3h27.6l-12.1-33.2 5.6-3.2a13.374 13.374 0 0 0 4.531-3.919Q289 24.364 289 19.501q0-15.034-22.201-15.486a68.677 68.677 0 0 0-1.399-.014h-9.2v67h-3v-70h12.2q8.124 0 13.786 1.837a21.846 21.846 0 0 1 6.114 3.013 15.496 15.496 0 0 1 6.568 11.253 21.105 21.105 0 0 1 .132 2.397 18.604 18.604 0 0 1-1.027 6.344q-1.76 4.885-6.541 7.864a20.464 20.464 0 0 1-.832.492l-3.4 1.9 12.7 34.9H261Zm330.4-54.8-9.3 7h-4.9l10.8-8.1q-2.1-6.7-6.05-9.4a15.118 15.118 0 0 0-5.66-2.321 21.013 21.013 0 0 0-4.09-.379 53.405 53.405 0 0 0-2.824.07q-2.207.117-3.926.43-2.75.5-5.5 1.95a8.84 8.84 0 0 0-3.552 3.466 11.561 11.561 0 0 0-.598 1.184q-1.4 3.2-1.4 8.2a9.172 9.172 0 0 0 2.138 5.865 13.826 13.826 0 0 0 1.912 1.935 33.701 33.701 0 0 0 5.347 3.641 43.878 43.878 0 0 0 4.503 2.159q5.8 2.4 11.65 4.9 5.85 2.5 9.9 6.4a14.009 14.009 0 0 1 2.696 3.504 11.534 11.534 0 0 1 1.354 5.496 32.221 32.221 0 0 1-.436 5.488q-.517 2.983-1.645 5.336a14.494 14.494 0 0 1-2.869 4.076 14.06 14.06 0 0 1-4.704 2.986Q579.5 72.001 572 72.001a39.38 39.38 0 0 1-5.979-.426q-3.161-.486-5.73-1.529a18.343 18.343 0 0 1-3.691-1.995q-5.6-3.95-7.7-12.25l2.8-1.2q1.325 5.366 3.901 8.56a12.615 12.615 0 0 0 2.949 2.69 17.295 17.295 0 0 0 4.659 2.068q2.111.608 4.628.875a39.659 39.659 0 0 0 4.163.207q9.357 0 14.012-3.516a11.937 11.937 0 0 0 .238-.184 10.802 10.802 0 0 0 3.239-4.475q.75-1.832 1.101-4.152a29.969 29.969 0 0 0 .31-4.473 9.172 9.172 0 0 0-2.138-5.866 13.826 13.826 0 0 0-1.912-1.934 33.157 33.157 0 0 0-5.126-3.509 43.615 43.615 0 0 0-4.774-2.291q-5.85-2.4-11.65-4.9a35.205 35.205 0 0 1-6.271-3.463 29.673 29.673 0 0 1-3.579-2.937 14.009 14.009 0 0 1-2.696-3.505 11.534 11.534 0 0 1-1.354-5.495q0-5.888 1.805-9.786a12.516 12.516 0 0 1 3.095-4.214Q560.99.185 571.27.009a54.304 54.304 0 0 1 .93-.008 24.101 24.101 0 0 1 5.302.55q3.851.868 6.676 3.104a15.223 15.223 0 0 1 .422.346 18.001 18.001 0 0 1 3.93 4.836q1.226 2.145 2.123 4.821a36.493 36.493 0 0 1 .747 2.543ZM9.9 71.001v-3h36.8l-21.2-58.3-22.3 61.3H0L25.5.901l25.5 70.1H9.9Zm190.5 0v-3h36.8L216 9.701l-22.3 61.3h-3.2L216 .901l25.5 70.1h-41.1Zm224.3-14.1 2.7 1.3a26.899 26.899 0 0 1-2.986 5.487 20.816 20.816 0 0 1-4.614 4.713 15.81 15.81 0 0 1-4.47 2.228q-4.182 1.372-10.23 1.372a31.499 31.499 0 0 1-6.704-.666q-4.066-.886-7.069-2.954a16.601 16.601 0 0 1-4.027-3.93 23.673 23.673 0 0 1-3.229-6.477q-2.271-6.792-2.271-17.073v-9.8q0-14.613 4.588-22.178a19.526 19.526 0 0 1 .912-1.372 17.385 17.385 0 0 1 9.531-6.489Q399.802.2 403.404.038A37.814 37.814 0 0 1 405.1.001q9.521 0 14.417 3.398a12.91 12.91 0 0 1 .283.202 21.356 21.356 0 0 1 5.591 6.191 28.227 28.227 0 0 1 2.009 4.009l-2.7 1.3a23.862 23.862 0 0 0-2.376-4.568 18.005 18.005 0 0 0-4.124-4.382 13.045 13.045 0 0 0-3.626-1.858q-3.397-1.164-8.357-1.28a47.8 47.8 0 0 0-1.117-.012 32.254 32.254 0 0 0-3.75.206q-2.572.301-4.65 1.044a15.405 15.405 0 0 0-5.202 3.165 18.71 18.71 0 0 0-1.098 1.085q-2.8 3-4.2 8.65-1.058 4.27-1.317 10.055a87.386 87.386 0 0 0-.083 3.895v9.8q0 6.344.818 11.14a38.845 38.845 0 0 0 .582 2.81q1.023 4.129 2.794 6.843a13.26 13.26 0 0 0 1.406 1.807 17.002 17.002 0 0 0 3.572 2.945 14.769 14.769 0 0 0 2.728 1.305 20.022 20.022 0 0 0 3.524.886q2.235.364 4.876.364a40.046 40.046 0 0 0 4.634-.25q5.447-.636 8.466-2.9a18.332 18.332 0 0 0 4.648-5.2 24.635 24.635 0 0 0 1.852-3.75Zm-124.9-55.9h50v3h-23.5v67h-3v-67h-23.5v-3Zm-234.1 67h38.8v3H62.7v-70h3v67Zm53.2 0h38.8v3h-41.8v-70h3v67Zm326.8 0h38.8v3h-41.8v-70h3v67Zm-81.5-67v70h-3v-70h3Z" font-size="12" style="stroke:#5eead4;stroke-width:.25mm;fill:#5eead4"/></svg>