<svg xmlns="http://www.w3.org/2000/svg" width="441.401" height="71.101" viewBox="6.9 -4.001 447.401 77.101"><path fill="#5eead4" fill-rule="evenodd" stroke="#5eead4" stroke-linecap="round" stroke-width=".945" d="M90.9 30.5v3H61.2L91.8 3.1H58v64h38.8v3H55V.1h44.1L68.5 30.5h22.4Zm284.8 0v3H346l30.6-30.4h-33.8v64h38.8v3h-41.8V.1h44.1l-30.6 30.4h22.4Zm-83.1 39.6v-3h27.6l-12.1-33.2 5.6-3.2a13.374 13.374 0 0 0 4.531-3.918q2.369-3.319 2.369-8.182 0-15.033-22.201-15.486A68.677 68.677 0 0 0 297 3.1h-9.2v67h-3V.1H297q8.124 0 13.786 1.837A21.846 21.846 0 0 1 316.9 4.95a15.496 15.496 0 0 1 6.568 11.253 21.105 21.105 0 0 1 .132 2.397 18.604 18.604 0 0 1-1.027 6.344q-1.76 4.885-6.541 7.865a20.464 20.464 0 0 1-.832.491l-3.4 1.9 12.7 34.9h-31.9Zm-65-67v-3h38.3V40q0 14.613-4.588 22.178a19.526 19.526 0 0 1-.912 1.372 17.385 17.385 0 0 1-9.531 6.488q-2.971.863-6.573 1.025a37.814 37.814 0 0 1-1.696.037 31.499 31.499 0 0 1-6.704-.665q-4.066-.887-7.069-2.954a16.601 16.601 0 0 1-4.027-3.931 23.673 23.673 0 0 1-3.229-6.477Q219.3 50.281 219.3 40V.1h3V40q0 6.345.818 11.141a38.845 38.845 0 0 0 .582 2.809q1.023 4.129 2.794 6.843A13.26 13.26 0 0 0 227.9 62.6a17.002 17.002 0 0 0 3.572 2.946 14.769 14.769 0 0 0 2.728 1.304 20.022 20.022 0 0 0 3.524.887q2.235.363 4.876.363a32.254 32.254 0 0 0 3.75-.206q2.572-.302 4.65-1.044a15.405 15.405 0 0 0 5.202-3.166A18.71 18.71 0 0 0 257.3 62.6q2.8-3 4.2-8.65 1.058-4.271 1.317-10.055A87.386 87.386 0 0 0 262.9 40V3.1h-35.3Zm-113.2 67v-3h36.8L130 8.8l-22.3 61.3h-3.2L130 0l25.5 70.1h-41.1ZM35.9 30.5v3H6.2L36.8 3.1H3v67H0V.1h44.1L13.5 30.5h22.4ZM158.8.1h50v3h-23.5v67h-3v-67h-23.5v-3Zm248.2 70h-9.6V.1h9.6a32.149 32.149 0 0 1 23.612 9.788 39.801 39.801 0 0 1 .788.812 37.039 37.039 0 0 1 7.578 11.591A33.972 33.972 0 0 1 441.4 35.1a34.392 34.392 0 0 1-9.537 23.901 44.366 44.366 0 0 1-.463.499 33.217 33.217 0 0 1-12.642 8.571A33.477 33.477 0 0 1 407 70.1Zm-6.6-3h6.6q13.1 0 22.25-9.65t9.15-22.35q0-12.7-9.15-22.35a30.493 30.493 0 0 0-11.366-7.736A30.463 30.463 0 0 0 407 3.1h-6.6v64Z" font-size="12" style="stroke:#5eead4;stroke-width:.25mm;fill:#5eead4"/></svg>