<svg width="316.1" height="72.001" viewBox="6.9 -4.000526471930691 322.1 78.00116513826904" xmlns="http://www.w3.org/2000/svg"><g id="svgGroup" stroke-linecap="round" fill-rule="evenodd" font-size="9pt" stroke="#5eead4" stroke-width="0.25mm" fill="#5eead4" style="stroke:#5eead4;stroke-width:0.25mm;fill:#5eead4"><path d="M 196.7 31.401 L 196.7 34.401 L 167 34.401 L 197.6 4.001 L 163.8 4.001 L 163.8 68.001 L 202.6 68.001 L 202.6 71.001 L 160.8 71.001 L 160.8 1.001 L 204.9 1.001 L 174.3 31.401 L 196.7 31.401 Z M 256.3 16.201 L 247 23.201 L 242.1 23.201 L 252.9 15.101 Q 250.8 8.401 246.85 5.701 A 15.118 15.118 0 0 0 241.19 3.38 A 21.013 21.013 0 0 0 237.1 3.001 A 53.405 53.405 0 0 0 234.276 3.071 Q 232.069 3.188 230.35 3.501 Q 227.6 4.001 224.85 5.451 A 8.84 8.84 0 0 0 221.298 8.917 A 11.561 11.561 0 0 0 220.7 10.101 Q 219.3 13.301 219.3 18.301 A 9.172 9.172 0 0 0 221.438 24.166 A 13.826 13.826 0 0 0 223.35 26.101 A 33.701 33.701 0 0 0 228.697 29.742 A 43.878 43.878 0 0 0 233.2 31.901 Q 239 34.301 244.85 36.801 Q 250.7 39.301 254.75 43.201 A 14.009 14.009 0 0 1 257.446 46.705 A 11.534 11.534 0 0 1 258.8 52.201 A 32.221 32.221 0 0 1 258.364 57.689 Q 257.847 60.672 256.719 63.025 A 14.494 14.494 0 0 1 253.85 67.101 A 14.06 14.06 0 0 1 249.146 70.087 Q 244.4 72.001 236.9 72.001 A 39.38 39.38 0 0 1 230.921 71.575 Q 227.76 71.089 225.191 70.046 A 18.343 18.343 0 0 1 221.5 68.051 Q 215.9 64.101 213.8 55.801 L 216.6 54.601 Q 217.925 59.967 220.501 63.161 A 12.615 12.615 0 0 0 223.45 65.851 A 17.295 17.295 0 0 0 228.109 67.919 Q 230.22 68.527 232.737 68.794 A 39.659 39.659 0 0 0 236.9 69.001 Q 246.257 69.001 250.912 65.485 A 11.937 11.937 0 0 0 251.15 65.301 A 10.802 10.802 0 0 0 254.389 60.826 Q 255.139 58.994 255.49 56.674 A 29.969 29.969 0 0 0 255.8 52.201 A 9.172 9.172 0 0 0 253.662 46.335 A 13.826 13.826 0 0 0 251.75 44.401 A 33.157 33.157 0 0 0 246.624 40.892 A 43.615 43.615 0 0 0 241.85 38.601 Q 236 36.201 230.2 33.701 A 35.205 35.205 0 0 1 223.929 30.238 A 29.673 29.673 0 0 1 220.35 27.301 A 14.009 14.009 0 0 1 217.654 23.796 A 11.534 11.534 0 0 1 216.3 18.301 Q 216.3 12.413 218.105 8.515 A 12.516 12.516 0 0 1 221.2 4.301 Q 225.89 0.185 236.17 0.009 A 54.304 54.304 0 0 1 237.1 0.001 A 24.101 24.101 0 0 1 242.402 0.551 Q 246.253 1.419 249.078 3.655 A 15.223 15.223 0 0 1 249.5 4.001 A 18.001 18.001 0 0 1 253.43 8.837 Q 254.656 10.982 255.553 13.658 A 36.493 36.493 0 0 1 256.3 16.201 Z M 55 71.001 L 55 68.001 L 91.8 68.001 L 70.6 9.701 L 48.3 71.001 L 45.1 71.001 L 70.6 0.901 L 96.1 71.001 L 55 71.001 Z M 99.4 1.001 L 149.4 1.001 L 149.4 4.001 L 125.9 4.001 L 125.9 71.001 L 122.9 71.001 L 122.9 4.001 L 99.4 4.001 L 99.4 1.001 Z M 266.1 1.001 L 316.1 1.001 L 316.1 4.001 L 292.6 4.001 L 292.6 71.001 L 289.6 71.001 L 289.6 4.001 L 266.1 4.001 L 266.1 1.001 Z M 3 68.001 L 41.8 68.001 L 41.8 71.001 L 0 71.001 L 0 1.001 L 3 1.001 L 3 68.001 Z"/></g></svg>