<svg xmlns="http://www.w3.org/2000/svg" width="316.1" height="72.001" viewBox="6.9 -4.001 322.1 78.001"><path fill="#5eead4" fill-rule="evenodd" stroke="#5eead4" stroke-linecap="round" stroke-width=".945" d="M196.7 31.401v3H167l30.6-30.4h-33.8v64h38.8v3h-41.8v-70h44.1l-30.6 30.4h22.4Zm59.6-15.2-9.3 7h-4.9l10.8-8.1q-2.1-6.7-6.05-9.4a15.118 15.118 0 0 0-5.66-2.321 21.013 21.013 0 0 0-4.09-.379 53.405 53.405 0 0 0-2.824.07q-2.207.117-3.926.43-2.75.5-5.5 1.95a8.84 8.84 0 0 0-3.552 3.466 11.561 11.561 0 0 0-.598 1.184q-1.4 3.2-1.4 8.2a9.172 9.172 0 0 0 2.138 5.865 13.826 13.826 0 0 0 1.912 1.935 33.701 33.701 0 0 0 5.347 3.641 43.878 43.878 0 0 0 4.503 2.159q5.8 2.4 11.65 4.9 5.85 2.5 9.9 6.4a14.009 14.009 0 0 1 2.696 3.504 11.534 11.534 0 0 1 1.354 5.496 32.221 32.221 0 0 1-.436 5.488q-.517 2.983-1.645 5.336a14.494 14.494 0 0 1-2.869 4.076 14.06 14.06 0 0 1-4.704 2.986q-4.746 1.914-12.246 1.914a39.38 39.38 0 0 1-5.979-.426q-3.161-.486-5.73-1.529a18.343 18.343 0 0 1-3.691-1.995q-5.6-3.95-7.7-12.25l2.8-1.2q1.325 5.366 3.901 8.56a12.615 12.615 0 0 0 2.949 2.69 17.295 17.295 0 0 0 4.659 2.068q2.111.608 4.628.875a39.659 39.659 0 0 0 4.163.207q9.357 0 14.012-3.516a11.937 11.937 0 0 0 .238-.184 10.802 10.802 0 0 0 3.239-4.475q.75-1.832 1.101-4.152a29.969 29.969 0 0 0 .31-4.473 9.172 9.172 0 0 0-2.138-5.866 13.826 13.826 0 0 0-1.912-1.934 33.157 33.157 0 0 0-5.126-3.509 43.615 43.615 0 0 0-4.774-2.291q-5.85-2.4-11.65-4.9a35.205 35.205 0 0 1-6.271-3.463 29.673 29.673 0 0 1-3.579-2.937 14.009 14.009 0 0 1-2.696-3.505 11.534 11.534 0 0 1-1.354-5.495q0-5.888 1.805-9.786a12.516 12.516 0 0 1 3.095-4.214Q225.89.185 236.17.009a54.304 54.304 0 0 1 .93-.008 24.101 24.101 0 0 1 5.302.55q3.851.868 6.676 3.104a15.223 15.223 0 0 1 .422.346 18.001 18.001 0 0 1 3.93 4.836q1.226 2.145 2.123 4.821a36.493 36.493 0 0 1 .747 2.543ZM55 71.001v-3h36.8l-21.2-58.3-22.3 61.3h-3.2L70.6.901l25.5 70.1H55Zm44.4-70h50v3h-23.5v67h-3v-67H99.4v-3Zm166.7 0h50v3h-23.5v67h-3v-67h-23.5v-3ZM3 68.001h38.8v3H0v-70h3v67Z" font-size="12" style="stroke:#5eead4;stroke-width:.25mm;fill:#5eead4"/></svg>